<?xml version="1.0" encoding="UTF-8"?> <svg xmlns="http://www.w3.org/2000/svg" width="230" height="42" viewBox="0 0 230 42" fill="none"><path d="M49.8449 26.088C48.122 28.565 45.1355 30.1802 41.7651 30.1802C37.9508 30.1802 34.6523 28.0986 33.0651 25.072L25.8782 35.3975C29.8826 39.3495 35.5198 41.8107 41.7651 41.8107C49.4741 41.8107 56.2554 38.0608 60.1853 32.3851L82.6001 0.189209H67.8773L49.8449 26.088ZM33.6853 15.9115C35.4082 13.4344 38.3948 11.8197 41.7651 11.8197C45.5795 11.8197 48.8779 13.9009 50.4652 16.9271L57.6521 6.60199C53.6476 2.65043 48.0105 0.189209 41.7651 0.189209C34.0561 0.189209 27.2744 3.93908 23.3449 9.61442L0.930176 41.8107H15.6529L33.6853 15.9115ZM41.7651 16.3671C44.4706 16.3671 46.6638 18.4408 46.6638 20.9997C46.6638 23.5587 44.4706 25.6328 41.7651 25.6328C39.0597 25.6328 36.8665 23.5587 36.8665 20.9997C36.8665 18.4408 39.0597 16.3671 41.7651 16.3671Z" fill="url(#paint0_linear_124_249)"></path><path d="M90.9141 17.7514V17.3167C90.9141 16.6163 90.656 16.0366 90.1656 15.5777C89.6752 15.1188 88.9784 14.9014 88.1009 14.9014C87.2234 14.9014 86.5523 15.0947 86.0619 15.457C85.5716 15.8434 85.3393 16.3506 85.3393 16.9544C85.3393 17.365 85.4941 17.7514 85.778 18.1137C86.0619 18.476 86.5265 18.7417 87.1201 18.9591L89.6752 19.8768C90.1914 20.0459 90.7076 20.2633 91.198 20.4807C91.6884 20.7222 92.1529 21.012 92.5401 21.3501C92.9272 21.7124 93.2627 22.123 93.495 22.6302C93.7273 23.1374 93.8563 23.7412 93.8563 24.4417C93.8563 25.1421 93.7273 25.7942 93.4434 26.3738C93.1595 26.9535 92.7981 27.4607 92.3078 27.8713C91.7916 28.2819 91.2238 28.62 90.5269 28.8374C89.8301 29.0548 89.0558 29.1755 88.2041 29.1755C87.3524 29.1755 86.5523 29.0789 85.8555 28.8615C85.1586 28.6442 84.5392 28.3543 84.0488 27.9438C83.5326 27.5332 83.1197 27.0501 82.8616 26.4946C82.5777 25.9391 82.4229 25.287 82.4229 24.5866V24.1277H85.0296V24.6832C85.0296 25.4077 85.3135 25.9874 85.8555 26.4221C86.3975 26.881 87.1459 27.0984 88.1267 27.0984C89.1332 27.0984 89.9075 26.881 90.4495 26.4221C90.9915 25.9633 91.2496 25.4077 91.2496 24.7073C91.2496 24.0552 91.0431 23.5239 90.6302 23.1616C90.1914 22.7993 89.6236 22.4853 88.9268 22.2438L86.4233 21.326C85.8813 21.1328 85.3909 20.9154 84.9522 20.6497C84.5134 20.384 84.1263 20.0942 83.8165 19.7561C83.481 19.4179 83.2487 19.0315 83.0681 18.5968C82.8616 18.162 82.7842 17.679 82.7842 17.1235C82.7842 16.5197 82.9132 15.9642 83.1713 15.4328C83.4036 14.9256 83.7649 14.4667 84.2295 14.0803C84.6941 13.6938 85.2619 13.3798 85.9071 13.1625C86.5523 12.9451 87.3008 12.8243 88.1009 12.8243C88.901 12.8243 89.6494 12.921 90.3205 13.1383C90.9915 13.3557 91.5593 13.6455 92.0497 14.0561C92.5142 14.4667 92.8756 14.9498 93.1595 15.5053C93.4176 16.0608 93.5466 16.7129 93.5466 17.4133V17.7514H90.9141Z" fill="white"></path><path d="M99.6632 13.0658H97.0049V28.9339H99.6632V13.0658Z" fill="white"></path><path d="M106.115 18.0412V28.9339H103.664V13.0658H105.961L110.167 20.5772L114.349 13.0658H116.646V28.9339H114.065V18.0895L110.916 23.717H109.342L106.115 18.0412Z" fill="white"></path><path d="M120.672 13.0658H126.247C127.098 13.0658 127.873 13.1866 128.569 13.4281C129.266 13.6696 129.886 14.0077 130.402 14.4666C130.918 14.9255 131.331 15.4569 131.615 16.0607C131.899 16.6887 132.054 17.3891 132.054 18.162C132.054 18.959 131.899 19.6836 131.615 20.3357C131.331 20.9878 130.918 21.5191 130.402 21.978C129.886 22.4369 129.266 22.7751 128.569 23.0166C127.873 23.2823 127.098 23.403 126.247 23.403H123.33V28.9339H120.672V13.0658ZM123.33 15.2637V21.2293H126.04C127.047 21.2293 127.873 20.9636 128.466 20.4081C129.06 19.8526 129.344 19.1281 129.344 18.2103C129.344 17.3166 129.06 16.592 128.466 16.0607C127.873 15.5293 127.047 15.2637 126.04 15.2637H123.33Z" fill="white"></path><path d="M137.577 26.6878H144.546V28.9339H134.919V13.0658H137.577V26.6878Z" fill="white"></path><path d="M146.249 13.0658L149.656 20.1183L153.037 13.0658H155.721L150.895 22.5577V28.9339H148.236V22.5818L143.41 13.0658H146.249Z" fill="white"></path><path d="M170.097 17.7514V17.3167C170.097 16.6163 169.839 16.0366 169.348 15.5777C168.858 15.1188 168.161 14.9014 167.283 14.9014C166.406 14.9014 165.735 15.0947 165.245 15.457C164.754 15.8434 164.522 16.3506 164.522 16.9544C164.522 17.365 164.677 17.7514 164.961 18.1137C165.245 18.476 165.709 18.7417 166.303 18.9591L168.858 19.8768C169.374 20.0459 169.89 20.2633 170.381 20.4807C170.871 20.7222 171.336 21.012 171.723 21.3501C172.11 21.7124 172.445 22.123 172.678 22.6302C172.91 23.1374 173.039 23.7412 173.039 24.4417C173.039 25.1421 172.91 25.7942 172.626 26.3738C172.342 26.9535 171.981 27.4607 171.49 27.8713C170.974 28.2819 170.406 28.62 169.71 28.8374C169.013 29.0548 168.238 29.1755 167.387 29.1755C166.535 29.1755 165.735 29.0789 165.038 28.8615C164.341 28.6442 163.722 28.3543 163.231 27.9438C162.715 27.5332 162.302 27.0501 162.044 26.4946C161.76 25.9391 161.605 25.287 161.605 24.5866V24.1277H164.212V24.6832C164.212 25.4077 164.496 25.9874 165.038 26.4221C165.58 26.881 166.329 27.0984 167.309 27.0984C168.316 27.0984 169.09 26.881 169.632 26.4221C170.174 25.9633 170.432 25.4077 170.432 24.7073C170.432 24.0552 170.226 23.5239 169.813 23.1616C169.374 22.7993 168.806 22.4853 168.109 22.2438L165.606 21.326C165.064 21.1328 164.574 20.9154 164.135 20.6497C163.696 20.384 163.309 20.0942 162.999 19.7561C162.664 19.4179 162.431 19.0315 162.251 18.5968C162.044 18.162 161.967 17.679 161.967 17.1235C161.967 16.5197 162.096 15.9642 162.354 15.4328C162.586 14.9256 162.948 14.4667 163.412 14.0803C163.877 13.6938 164.444 13.3798 165.09 13.1625C165.735 12.9451 166.483 12.8243 167.283 12.8243C168.084 12.8243 168.832 12.921 169.503 13.1383C170.174 13.3557 170.742 13.6455 171.232 14.0561C171.697 14.4667 172.058 14.9498 172.342 15.5053C172.6 16.0608 172.729 16.7129 172.729 17.4133V17.7514H170.097Z" fill="white"></path><path d="M174.665 13.0658H185.789V15.312H181.556V28.9339H178.898V15.312H174.665V13.0658Z" fill="white"></path><path d="M185.608 28.9339L190.821 13.0658H193.609L198.848 28.9339H196.086L195.08 25.7458H189.221L188.215 28.9339H185.608ZM189.841 23.5962H194.46L192.138 16.2298L189.841 23.5962Z" fill="white"></path><path d="M198.693 13.0658H209.817V15.312H205.584V28.9339H202.926V15.312H198.693V13.0658Z" fill="white"></path><path d="M214.979 13.0658H212.32V28.9339H214.979V13.0658Z" fill="white"></path><path d="M229.922 23.6688V24.1277C229.922 24.9005 229.793 25.601 229.509 26.2289C229.225 26.8569 228.838 27.3882 228.348 27.823C227.858 28.2577 227.264 28.5959 226.567 28.8132C225.87 29.0548 225.122 29.1755 224.27 29.1755C223.418 29.1755 222.618 29.0548 221.921 28.8132C221.225 28.5717 220.605 28.2336 220.115 27.7747C219.624 27.3158 219.237 26.7844 218.953 26.1323C218.67 25.5044 218.515 24.7798 218.515 23.9828V18.0171C218.515 16.3989 219.031 15.143 220.037 14.201C221.044 13.2832 222.438 12.8243 224.27 12.8243C225.122 12.8243 225.87 12.9451 226.567 13.1625C227.264 13.404 227.858 13.7421 228.348 14.1769C228.838 14.6116 229.225 15.143 229.509 15.7709C229.793 16.3989 229.922 17.0993 229.922 17.8722V18.2345H227.341V17.848C227.341 17.0269 227.083 16.3506 226.541 15.8434C225.974 15.3362 225.225 15.0705 224.218 15.0705C223.264 15.0705 222.515 15.3362 221.973 15.8917C221.431 16.4472 221.173 17.1476 221.173 18.0171V23.9828C221.173 24.8522 221.431 25.5527 221.973 26.1082C222.515 26.6637 223.264 26.9293 224.218 26.9293C225.225 26.9293 225.974 26.6637 226.541 26.1565C227.083 25.6493 227.341 24.973 227.341 24.1518V23.6688H229.922Z" fill="white"></path><defs><linearGradient id="paint0_linear_124_249" x1="51.2888" y1="-5.30671" x2="14.4504" y2="44.1949" gradientUnits="userSpaceOnUse"><stop stop-color="#7B4DFF"></stop><stop offset="1" stop-color="#5A20FF"></stop></linearGradient></defs></svg> 